<?xml version="1.0" encoding="UTF-8" standalone="no"?>
<svg width="35px" height="35px" viewBox="0 0 35 35" version="1.1" xmlns="http://www.w3.org/2000/svg" xmlns:xlink="http://www.w3.org/1999/xlink">
    <!-- Generator: Sketch 42 (36781) - http://www.bohemiancoding.com/sketch -->
    <title>002-github-logo</title>
    <desc>Created with Sketch.</desc>
    <defs></defs>
    <g id="Welcome" stroke="none" stroke-width="1" fill="none" fill-rule="evenodd">
        <g id="Desktop" transform="translate(-958.000000, -30.000000)" fill-rule="nonzero" stroke="#274359" fill="#FFFFFF">
            <g id="002-github-logo" transform="translate(959.000000, 31.000000)">
                <g id="Capa_1">
                    <path d="M22.3927778,32.7618333 C22.2303333,32.8203889 22.0669444,32.8912222 21.8997778,32.9205 C21.2594444,33.0347778 20.8495556,32.7042222 20.8457778,32.0497222 C20.8372778,30.8342222 20.8372778,29.6206111 20.8571111,28.4051111 C20.8778889,27.0073333 20.8457778,25.6275 19.7813889,24.4743333 C20.4141667,24.361 20.9770556,24.2816667 21.5276667,24.1551111 C25.1751111,23.3173889 27.0696667,21.0167222 27.3114444,17.1983333 C27.4351667,15.2546667 27.0885556,13.4715556 25.7965556,11.9406111 C25.7030556,11.8329444 25.6983333,11.5883333 25.7427222,11.4315556 C26.0865,10.166 25.9863889,8.92972222 25.5859444,7.6925 C25.4867778,7.38366667 25.3224444,7.28827778 25.0173889,7.30811111 C23.9463889,7.36761111 22.9651111,7.7435 22.1,8.3215 C21.2660556,8.88155556 20.4897222,9.00338889 19.499,8.77672222 C17.3173333,8.28466667 15.1215,8.42822222 12.9445556,8.93255556 C12.6980556,8.99111111 12.3665556,8.91272222 12.1408333,8.7805 C11.1189444,8.18172222 10.0970556,7.59994444 8.91838889,7.36761111 C8.007,7.19005556 7.92766667,7.23538889 7.68588889,8.11655556 C7.38177778,9.22722222 7.35155556,10.3388333 7.66227778,11.4561111 C7.70666667,11.6185556 7.66038889,11.8792222 7.55177778,11.9991667 C5.13683333,14.6936667 6.01138889,19.7851667 7.63866667,21.7354444 C8.90422222,23.2503333 10.5853333,23.9322222 12.4515556,24.2863889 C12.7773889,24.3468333 13.1013333,24.3931111 13.4271667,24.4497778 C13.1476111,25.177 12.8963889,25.8636111 12.6121111,26.5388889 C12.5563889,26.6692222 12.3797778,26.7787778 12.2352778,26.8335556 C10.4049444,27.5437778 8.8315,27.0215 7.78411111,25.3602222 C7.22405556,24.4743333 6.50533333,23.8122778 5.43433333,23.6205556 C5.40033333,23.6139444 5.36538889,23.596 5.33422222,23.6007222 C5.04616667,23.6762778 4.76094444,23.7556111 4.47383333,23.8330556 C4.63533333,24.0578333 4.74961111,24.3600556 4.96588889,24.4951111 C5.8735,25.0693333 6.46377778,25.8881667 6.85383333,26.8543333 C7.46677778,28.3692222 8.65677778,29.0445 10.2028333,29.1767222 C10.9574444,29.2381111 11.7196111,29.1861667 12.546,29.1861667 C12.546,30.1268333 12.58,31.2006667 12.5318333,32.2697778 C12.5072778,32.8458889 11.9283333,33.0763333 11.2351111,32.8402222 C9.39627778,32.2112222 7.69155556,31.3092778 6.21916667,30.0418333 C0.902888889,25.4622222 -1.14655556,19.6727778 0.6205,12.8963889 C2.38188889,6.14172222 6.97283333,1.99844444 13.8370556,0.697944444 C23.3353333,-1.09838889 32.3330556,5.81872222 33.2756111,15.4605556 C34.0198333,23.0614444 29.546,30.1740556 22.3927778,32.7618333 Z M13.4385,24.4138889 C13.4328333,24.4271111 13.4290556,24.4365556 13.4233889,24.4497778 C13.4403889,24.4526111 13.4573889,24.4554444 13.4753333,24.4582778 C13.4885556,24.4592222 13.4998889,24.4828333 13.4385,24.4138889 Z M9.14127778,27.4181667 C9.28955556,27.5097778 9.43122222,27.6259444 9.59177778,27.676 C9.65033333,27.6948889 9.75894444,27.5617222 9.95066667,27.4200556 C9.68433333,27.319 9.52755556,27.2302222 9.36227778,27.2075556 C9.29805556,27.2 9.21494444,27.3445 9.14127778,27.4181667 Z M10.4946667,27.6505 C10.5163889,27.7496667 10.7137778,27.8733889 10.8299444,27.8715 C10.9423333,27.8696111 11.0518889,27.7203889 11.1642778,27.6353889 C11.0622778,27.5418889 10.9602778,27.4512222 10.6467222,27.1688333 C10.5787222,27.3652778 10.4663333,27.5239444 10.4946667,27.6505 Z M12.155,27.251 C12.0152222,27.2840556 11.8971667,27.4134444 11.7696667,27.5022222 C11.8442778,27.5966667 11.9188889,27.6845 12.0388333,27.8327778 C12.2041111,27.6816667 12.3165,27.5768333 12.4298333,27.4748333 C12.3353889,27.3926667 12.2248889,27.234 12.155,27.251 Z M8.03911111,26.6909444 C8.11655556,26.8373333 8.2365,26.9638889 8.39894444,27.1707222 C8.50755556,26.9931667 8.62561111,26.8571667 8.60483333,26.8297778 C8.50188889,26.6947222 8.36211111,26.5842222 8.22422222,26.4831667 C8.21477778,26.4756111 8.02305556,26.6588333 8.03911111,26.6909444 Z" id="Shape"></path>
                </g>
            </g>
        </g>
    </g>
</svg>